<svg xmlns="http://www.w3.org/2000/svg" xmlns:svg="http://www.w3.org/2000/svg" xmlns:xlink="http://www.w3.org/1999/xlink" id="svg6517" width="96" height="96" version="1.1"><defs id="defs6519"><filter style="color-interpolation-filters:sRGB" id="filter1121"><feFlood id="feFlood1123" flood-color="#000" flood-opacity=".6" result="flood"/><feComposite id="feComposite1125" in="flood" in2="SourceGraphic" operator="out" result="composite1"/><feGaussianBlur id="feGaussianBlur1127" in="composite1" result="blur" stdDeviation="1"/><feOffset id="feOffset1129" dx="0" dy="2" result="offset"/><feComposite id="feComposite1131" in="offset" in2="SourceGraphic" operator="atop" result="composite2"/></filter><filter style="color-interpolation-filters:sRGB" id="filter950"><feFlood id="feFlood952" flood-color="#000" flood-opacity=".25" result="flood"/><feComposite id="feComposite954" in="flood" in2="SourceGraphic" operator="in" result="composite1"/><feGaussianBlur id="feGaussianBlur956" in="composite1" result="blur" stdDeviation="1"/><feOffset id="feOffset958" dx="0" dy="1" result="offset"/><feComposite id="feComposite960" in="SourceGraphic" in2="offset" operator="over" result="composite2"/></filter><filter id="filter891"><feGaussianBlur id="feGaussianBlur893" stdDeviation=".72"/></filter><filter id="filter3831"><feGaussianBlur id="feGaussianBlur3833" stdDeviation=".863"/></filter><filter id="filter3868" width="1.344" height="1.329" x="-.172" y="-.164"><feGaussianBlur id="feGaussianBlur3870" stdDeviation=".626"/></filter><linearGradient id="linearGradient4328"><stop style="stop-color:#871f1c;stop-opacity:1" id="stop4330" offset="0"/><stop style="stop-color:#651715;stop-opacity:1" id="stop4332" offset="1"/></linearGradient><linearGradient id="linearGradient902"><stop style="stop-color:#ccc;stop-opacity:1" id="stop904" offset="0"/><stop style="stop-color:#e6e6e6;stop-opacity:1" id="stop906" offset="1"/></linearGradient><linearGradient id="Background"><stop id="stop4178" offset="0" style="stop-color:#22779e;stop-opacity:1"/><stop id="stop4180" offset="1" style="stop-color:#2991c0;stop-opacity:1"/></linearGradient><clipPath id="clipPath873" clipPathUnits="userSpaceOnUse"><g id="g875" transform="matrix(0,-0.66666667,0.66604479,0,-258.25992,677.00001)" style="fill:#f0f;fill-opacity:1;stroke:none;display:inline"><path style="fill:#f0f;fill-opacity:1;stroke:none;display:inline" id="path877" d="m 46.702703,898.22775 50.594594,0 C 138.16216,898.22775 144,904.06497 144,944.92583 l 0,50.73846 c 0,40.86071 -5.83784,46.69791 -46.702703,46.69791 l -50.594594,0 C 5.8378378,1042.3622 0,1036.525 0,995.66429 L 0,944.92583 C 0,904.06497 5.8378378,898.22775 46.702703,898.22775 Z"/></g></clipPath><style id="style867" type="text/css"/><linearGradient id="linearGradient908" x1="-220" x2="-220" y1="731.291" y2="635.291" gradientUnits="userSpaceOnUse" xlink:href="#linearGradient902"/><clipPath id="clipPath16"><path id="path18" d="m -9,-9 614,0 0,231 -614,0 0,-231 z"/></clipPath><clipPath id="clipPath116"><path id="path118" d="m 91.7368,146.3253 -9.7039,-1.577 -8.8548,-3.8814 -7.5206,-4.7308 -7.1566,-8.7335 -4.0431,-4.282 -3.9093,-1.4409 -1.034,2.5271 1.8079,2.6096 0.4062,3.6802 1.211,-0.0488 1.3232,-1.2069 -0.3569,3.7488 -1.4667,0.9839 0.0445,1.4286 -3.4744,-1.9655 -3.1462,-3.712 -0.6559,-3.3176 1.3453,-2.6567 1.2549,-4.5133 2.5521,-1.2084 2.6847,0.1318 2.5455,1.4791 -1.698,-8.6122 1.698,-9.5825 -1.8692,-4.4246 -6.1223,-6.5965 1.0885,-3.941 2.9002,-4.5669 5.4688,-3.8486 2.9007,-0.3969 3.225,-0.1094 -2.012,-8.2601 7.3993,-3.0326 9.2188,-1.2129 3.1535,2.0619 0.2427,5.5797 3.5178,5.8224 0.2426,4.6094 8.4909,-0.6066 7.8843,0.7279 -7.8843,-4.7307 1.3343,-5.701 4.9731,-7.763 4.8521,-2.0622 3.8814,1.5769 1.577,3.1538 8.1269,6.1861 1.5769,-1.3343 12.7363,-0.485 2.5473,2.0619 0.2426,3.6391 -0.849,1.5767 -0.6066,9.8251 -4.2454,8.4909 0.7276,3.7605 2.5475,-1.3343 7.1566,-6.6716 3.5175,-0.2424 3.8815,1.5769 3.8818,2.9109 1.9406,6.3077 11.4021,-0.7277 6.914,2.6686 5.5797,5.2157 4.0028,7.5206 0.9706,8.8546 -0.8493,10.3105 -2.1832,9.2185 -2.1836,2.9112 -3.0322,0.9706 -5.3373,-5.8224 -4.8518,-1.6982 -4.2455,7.0353 -4.2454,3.8815 -2.3049,1.4556 -9.2185,7.6419 -7.3993,4.0028 -7.3993,0.6066 -8.6119,-1.4556 -7.5206,-2.7899 -5.2158,-4.2454 -4.1241,-4.9734 -4.2454,-1.2129"/></clipPath><clipPath id="clipPath128"><path id="path130" d="m 91.7368,146.3253 -9.7039,-1.577 -8.8548,-3.8814 -7.5206,-4.7308 -7.1566,-8.7335 -4.0431,-4.282 -3.9093,-1.4409 -1.034,2.5271 1.8079,2.6096 0.4062,3.6802 1.211,-0.0488 1.3232,-1.2069 -0.3569,3.7488 -1.4667,0.9839 0.0445,1.4286 -3.4744,-1.9655 -3.1462,-3.712 -0.6559,-3.3176 1.3453,-2.6567 1.2549,-4.5133 2.5521,-1.2084 2.6847,0.1318 2.5455,1.4791 -1.698,-8.6122 1.698,-9.5825 -1.8692,-4.4246 -6.1223,-6.5965 1.0885,-3.941 2.9002,-4.5669 5.4688,-3.8486 2.9007,-0.3969 3.225,-0.1094 -2.012,-8.2601 7.3993,-3.0326 9.2188,-1.2129 3.1535,2.0619 0.2427,5.5797 3.5178,5.8224 0.2426,4.6094 8.4909,-0.6066 7.8843,0.7279 -7.8843,-4.7307 1.3343,-5.701 4.9731,-7.763 4.8521,-2.0622 3.8814,1.5769 1.577,3.1538 8.1269,6.1861 1.5769,-1.3343 12.7363,-0.485 2.5473,2.0619 0.2426,3.6391 -0.849,1.5767 -0.6066,9.8251 -4.2454,8.4909 0.7276,3.7605 2.5475,-1.3343 7.1566,-6.6716 3.5175,-0.2424 3.8815,1.5769 3.8818,2.9109 1.9406,6.3077 11.4021,-0.7277 6.914,2.6686 5.5797,5.2157 4.0028,7.5206 0.9706,8.8546 -0.8493,10.3105 -2.1832,9.2185 -2.1836,2.9112 -3.0322,0.9706 -5.3373,-5.8224 -4.8518,-1.6982 -4.2455,7.0353 -4.2454,3.8815 -2.3049,1.4556 -9.2185,7.6419 -7.3993,4.0028 -7.3993,0.6066 -8.6119,-1.4556 -7.5206,-2.7899 -5.2158,-4.2454 -4.1241,-4.9734 -4.2454,-1.2129"/></clipPath><linearGradient id="linearGradient3850"><stop id="stop3852" offset="0" style="stop-color:#000;stop-opacity:1"/><stop id="stop3854" offset="1" style="stop-color:#000;stop-opacity:0"/></linearGradient><clipPath id="clipPath3095" clipPathUnits="userSpaceOnUse"><path id="path3097" d="m 976.648,389.551 -842.402,0 0,839.999 842.402,0 0,-839.999"/></clipPath><clipPath id="clipPath3195" clipPathUnits="userSpaceOnUse"><path id="path3197" d="m 611.836,756.738 -106.34,105.207 c -8.473,8.289 -13.617,20.102 -13.598,33.379 L 598.301,790.207 c -0.031,-13.418 5.094,-25.031 13.535,-33.469"/></clipPath><clipPath id="clipPath3235" clipPathUnits="userSpaceOnUse"><path id="path3237" d="m 1095.64,1501.81 c 35.46,-35.07 70.89,-70.11 106.35,-105.17 4.4,-4.38 7.11,-10.53 7.11,-17.55 l -106.37,105.21 c 0,7 -2.71,13.11 -7.09,17.51"/></clipPath><linearGradient id="linearGradient4389"><stop id="stop4391" offset="0" style="stop-color:#871f1c;stop-opacity:1"/><stop id="stop4393" offset="1" style="stop-color:#c42e24;stop-opacity:1"/></linearGradient><clipPath id="clipPath4591" clipPathUnits="userSpaceOnUse"><path style="fill:#f0f;fill-opacity:1;fill-rule:nonzero;stroke:none" id="path4593" d="m 1106.6009,730.43734 -0.036,21.648 c -0.01,3.50825 -2.8675,6.61375 -6.4037,6.92525 l -83.6503,7.33162 c -3.5205,0.30763 -6.3812,-2.29987 -6.3671,-5.8145 l 0.036,-21.6475 20.1171,-1.76662 -0.011,4.63775 c 0,1.83937 1.4844,3.19925 3.3262,3.0395 l 49.5274,-4.33975 c 1.8425,-0.166 3.3425,-1.78125 3.3538,-3.626 l 0.01,-4.63025 20.1,-1.7575"/></clipPath><radialGradient id="radialGradient3856" cx="-26.509" cy="93.399" r="20.407" fx="-26.509" fy="93.399" gradientTransform="matrix(-1.4333926,-2.2742838,1.1731823,-0.73941125,-174.08025,98.374394)" gradientUnits="userSpaceOnUse" xlink:href="#linearGradient3850"/><filter id="filter3885"><feGaussianBlur id="feGaussianBlur3887" stdDeviation="5.744"/></filter><linearGradient id="linearGradient3895" x1="348.201" x2="-51.88" y1="593.116" y2="993.197" gradientTransform="translate(-318.48033,212.32022)" gradientUnits="userSpaceOnUse" xlink:href="#linearGradient3850"/><radialGradient id="radialGradient3902" cx="-26.509" cy="93.399" r="20.407" fx="-26.509" fy="93.399" gradientTransform="matrix(-1.4333926,-2.2742838,1.1731823,-0.73941125,-174.08025,98.374394)" gradientUnits="userSpaceOnUse" xlink:href="#linearGradient3850"/><linearGradient id="linearGradient3904" x1="348.201" x2="-51.88" y1="593.116" y2="993.197" gradientTransform="translate(-318.48033,212.32022)" gradientUnits="userSpaceOnUse" xlink:href="#linearGradient3850"/><linearGradient id="linearGradient4318" x1="21.506" x2="25.218" y1="27.096" y2="23.384" gradientUnits="userSpaceOnUse" xlink:href="#linearGradient4389"/><linearGradient id="linearGradient4326" x1="72.803" x2="71.96" y1="20.042" y2="20.884" gradientUnits="userSpaceOnUse" xlink:href="#linearGradient4389"/><linearGradient id="linearGradient4334" x1="22.295" x2="21.692" y1="73.644" y2="74.247" gradientUnits="userSpaceOnUse" xlink:href="#linearGradient4328"/><linearGradient id="linearGradient4995" x1="61.831" x2="61.831" y1="42.226" y2="48.817" gradientUnits="userSpaceOnUse" xlink:href="#linearGradient4389"/><linearGradient id="linearGradient5007" x1="-234.438" x2="-212.462" y1="692.944" y2="676.082" gradientUnits="userSpaceOnUse" xlink:href="#linearGradient4389"/></defs><metadata id="metadata6522"/><g id="layer1" transform="translate(268,-635.29076)" style="display:inline"><path style="fill:url(#linearGradient908);fill-opacity:1;stroke:none;display:inline;filter:url(#filter1121)" id="path6455" d="m -268,700.15563 0,-33.72973 c 0,-27.24324 3.88785,-31.13513 31.10302,-31.13513 l 33.79408,0 c 27.21507,0 31.1029,3.89189 31.1029,31.13513 l 0,33.72973 c 0,27.24325 -3.88783,31.13514 -31.1029,31.13514 l -33.79408,0 C -264.11215,731.29077 -268,727.39888 -268,700.15563 Z"/><g id="g4336"><g id="g3897" transform="matrix(0.06790711,0,0,-0.06790711,-239.0411,765.68623)" xml:space="default"><path id="path3821" d="m -48.09375,67.8125 c -0.873996,-0.0028 -2.089735,0.01993 -3.40625,0.09375 -2.633031,0.147647 -5.700107,0.471759 -7.78125,1.53125 a 1.0001,1.0001 0 0 0 -0.25,1.59375 L -38.8125,92.375 a 1.0001,1.0001 0 0 0 0.84375,0.3125 L -24,90.5625 a 1.0001,1.0001 0 0 0 0.53125,-1.71875 L -46.0625,68.125 a 1.0001,1.0001 0 0 0 -0.625,-0.28125 c 0,0 -0.532254,-0.02842 -1.40625,-0.03125 z" transform="matrix(10.616011,0,0,-10.616011,357.98166,1725.8152)" xml:space="default" style="opacity:.7;color:#000;fill:url(#radialGradient3902);fill-opacity:1;stroke:none;stroke-width:2;marker:none;visibility:visible;display:inline;overflow:visible;filter:url(#filter3831);enable-background:accumulate"/><path id="path3858" d="m -15.782705,81.725197 8.7458304,9.147937" transform="matrix(10.616011,0,0,-10.616011,39.50133,1725.8152)" xml:space="default" style="opacity:.6;color:#000;fill:none;stroke:#000;stroke-width:2.77429962;stroke-linecap:round;marker:none;visibility:visible;display:inline;overflow:visible;filter:url(#filter3868);enable-background:accumulate"/><path id="path3874" d="m -95.18931,981.03569 a 10.617073,10.617073 0 0 1 -0.995251,-0.3318 l -42.795789,-5.308 a 10.617073,10.617073 0 0 1 -6.30326,-17.9145 L -4.2897203,812.5065 a 10.617073,10.617073 0 0 1 8.95726,-3.3175 l 49.0990503,7.63026 a 10.617073,10.617073 0 0 1 5.97151,17.91452 L -87.55905,978.04989 a 10.617073,10.617073 0 0 1 -7.63026,2.9858 z" xml:space="default" style="font-style:normal;font-variant:normal;font-weight:400;font-stretch:normal;text-indent:0;text-align:start;text-decoration:none;line-height:normal;letter-spacing:normal;word-spacing:normal;text-transform:none;direction:ltr;block-progression:tb;writing-mode:lr-tb;text-anchor:start;baseline-shift:baseline;opacity:.3;color:#000;fill:url(#linearGradient3904);fill-opacity:1;stroke:none;stroke-width:2;marker:none;visibility:visible;display:inline;overflow:visible;filter:url(#filter3885);enable-background:accumulate;font-family:Sans;-inkscape-font-specification:Sans"/></g><path id="path4308" d="M 20.697266 20.515625 C 19.336871 21.10204 18.348875 22.456253 18.345703 23.970703 L 18.353516 69.601562 C 18.349848 70.477025 18.685456 71.239319 19.222656 71.802734 L 19.212891 71.8125 L 19.357422 71.955078 C 19.360505 71.957909 19.364093 71.960073 19.367188 71.962891 L 26.660156 79.126953 L 33.488281 71.738281 L 21.814453 72.761719 C 21.767533 72.765719 21.724134 72.757766 21.677734 72.759766 L 68.097656 68.595703 C 68.264679 68.539797 68.430962 68.481622 68.587891 68.404297 L 37.945312 37.763672 C 35.972054 39.741548 34.726562 42.440739 34.726562 45.326172 L 34.726562 46.96875 L 18.351562 48.4375 L 18.351562 45.154297 L 31.5625 43.96875 C 31.958581 40.757068 33.488208 37.799426 35.728516 35.544922 L 20.697266 20.515625 z M 68.068359 68.607422 C 67.990023 68.632754 67.909984 68.652764 67.830078 68.673828 C 67.910523 68.653538 67.989876 68.632956 68.068359 68.607422 z" transform="translate(-268,635.29076)" style="opacity:1;color:#000;fill:#871f1c;fill-opacity:1;fill-rule:nonzero;stroke:none;stroke-width:.1;marker:none;visibility:visible;display:inline;overflow:visible;enable-background:accumulate"/><path id="path4970" d="m -200.67969,651.54467 -41.69922,3.6289 -3.90039,0.34961 c -0.35757,0.0445 -0.69974,0.14367 -1.02343,0.2832 l 15.03125,15.0293 c 2.32734,-2.34209 5.42196,-3.92508 8.82617,-4.23047 6.68109,-0.59935 12.18464,3.92097 12.99219,10.32422 l 13.21484,-1.18555 c -0.0182,-10.63147 0.0155,-9.06835 0.0155,-9.06835 l 6.45508,-6.98633 -7.33984,-7.21875 -0.008,0.01 c -0.63301,-0.64671 -1.5421,-1.01814 -2.56446,-0.93554 z" xml:space="default" style="color:#000;fill:#c42e24;fill-opacity:1;fill-rule:nonzero;stroke:none;stroke-width:.1;marker:none;visibility:visible;display:inline;overflow:visible;enable-background:accumulate"/><path id="path4233" d="m -197.23828,679.02709 -15.07227,1.35156 0,10.41797 12.89844,12.89844 c 1.27129,-0.62642 2.16884,-1.94227 2.17188,-3.38868 l 0.002,-4.20312 0,-17.07617 z" xml:space="default" style="color:#000;fill:#871f1c;fill-opacity:1;fill-rule:nonzero;stroke:none;stroke-width:.1;marker:none;visibility:visible;display:inline;overflow:visible;enable-background:accumulate"/><path id="path4938" d="m -189.97999,686.16038 -3.01338,-3.01338 -10.22023,0.89696 3.03082,3.03082 z" xml:space="default" style="color:#000;fill:#871f1c;fill-opacity:1;fill-rule:nonzero;stroke:none;stroke-width:1.70000005;marker:none;visibility:visible;display:inline;overflow:visible;enable-background:accumulate"/><path id="path4966" d="m 63.822266,33.335938 -2.742188,3.554687 -5.18164,0 c 0.84814,1.401066 1.428087,3.000842 1.648437,4.748047 l 7.240234,7.115234 7.013672,-7.11914 -1.128906,-1.173828 0.08984,-0.0078 0,-3.5625 -3.521485,0 z" transform="translate(-268,635.29076)" style="color:#000;fill:url(#linearGradient4995);fill-opacity:1;fill-rule:nonzero;stroke:none;stroke-width:1.70000005;marker:none;visibility:visible;display:inline;overflow:visible;enable-background:accumulate"/><path id="path4999" d="m -208.50905,680.03349 -11.01406,-11.0135 -15.88238,10.98246 9.38987,9.38988 z" style="color:#000;fill:url(#linearGradient5007);fill-opacity:1;fill-rule:nonzero;stroke:none;stroke-width:1.70000005;marker:none;visibility:visible;display:inline;overflow:visible;enable-background:accumulate"/><path id="path4944" d="m -193.41992,658.67748 -41.70117,3.6289 -3.89844,0.34961 c -1.86533,0.22009 -3.37107,1.86342 -3.375,3.73829 l 0.004,21.18359 13.21093,-1.18555 c 0.80755,-6.54814 6.31109,-12.05493 12.99219,-12.65429 6.68109,-0.59935 12.18464,3.92096 12.99219,10.32421 l 13.21484,-1.18554 0,-21.24219 c -0.10946,-1.80271 -1.5962,-3.10596 -3.43945,-2.95703 z" style="fill:#dd3b2e;fill-opacity:1;fill-rule:nonzero;stroke:none"/><path id="path4942" d="m -215.18359,676.98217 c -0.33039,-0.004 -0.66468,0.009 -1.00391,0.0391 -5.42774,0.48692 -9.82812,5.2895 -9.82812,10.72851 l 0,1.64258 -16.375,1.46875 0.004,21.16406 c -0.008,1.86255 1.47446,3.24608 3.32227,3.15821 l 46.43359,-4.16602 0.004,0 c 1.51653,-0.50597 2.64308,-1.95815 2.64648,-3.57812 l 0,-21.2793 -16.3789,1.46875 0,-1.64062 c 0,-5.09909 -3.86847,-8.94609 -8.82422,-9.00586 z" style="fill:#d93023;fill-opacity:1;fill-rule:nonzero;stroke:none"/><path id="path4633" d="m -192.63477,711.01928 c -0.089,0.0295 -0.18044,0.052 -0.27148,0.0762 0.0919,-0.0228 0.18215,-0.0466 0.27148,-0.0762 z" style="fill:#d93023;fill-opacity:1;fill-rule:nonzero;stroke:none"/><rect style="opacity:.8;color:#000;fill:none;stroke:none;stroke-width:4;marker:none;visibility:visible;display:inline;overflow:visible;enable-background:accumulate" id="rect3585-3" width="69.207" height="69.207" x="-258.707" y="648.491" xml:space="default"/><path id="path4256" d="M 22.029297 20.195312 L 21.822266 20.212891 C 19.919838 20.381715 18.370776 22.043134 18.349609 23.939453 L 24.662109 30.251953 L 25.605469 31.195312 L 25.605469 31.103516 C 25.609469 29.193966 27.168951 27.515473 29.082031 27.345703 L 29.171875 27.337891 L 28.373047 26.539062 L 22.029297 20.195312 z" transform="translate(-268,635.29076)" style="font-style:normal;font-variant:normal;font-weight:400;font-stretch:normal;text-indent:0;text-align:start;text-decoration:none;line-height:normal;letter-spacing:normal;word-spacing:normal;text-transform:none;direction:ltr;block-progression:tb;writing-mode:lr-tb;text-anchor:start;baseline-shift:baseline;opacity:1;color:#000;color-interpolation:sRGB;color-interpolation-filters:sRGB;fill:url(#linearGradient4318);fill-opacity:1;fill-rule:nonzero;stroke:none;stroke-width:5.25;marker:none;visibility:visible;display:inline;overflow:visible;enable-background:accumulate;clip-rule:nonzero;color-rendering:auto;image-rendering:auto;shape-rendering:auto;text-rendering:auto;font-family:sans-serif;-inkscape-font-specification:sans-serif"/><path id="path4272" d="M 67.330078 16.253906 L 68.03125 16.955078 L 74.472656 23.396484 L 74.580078 23.386719 C 75.531927 23.309814 76.390588 23.620657 77.015625 24.185547 L 69.892578 17.179688 L 69.884766 17.189453 C 69.253843 16.544862 68.348328 16.174551 67.330078 16.253906 z M 77.054688 24.222656 C 77.115589 24.279686 77.164628 24.348282 77.220703 24.410156 L 77.232422 24.398438 L 77.054688 24.222656 z" transform="translate(-268,635.29076)" style="font-style:normal;font-variant:normal;font-weight:400;font-stretch:normal;text-indent:0;text-align:start;text-decoration:none;line-height:normal;letter-spacing:normal;word-spacing:normal;text-transform:none;direction:ltr;block-progression:tb;writing-mode:lr-tb;text-anchor:start;baseline-shift:baseline;opacity:.53600003;color:#000;color-interpolation:sRGB;color-interpolation-filters:sRGB;fill:url(#linearGradient4326);fill-opacity:1;fill-rule:nonzero;stroke:none;stroke-width:2.4;marker:none;visibility:visible;display:inline;overflow:visible;enable-background:accumulate;clip-rule:nonzero;color-rendering:auto;image-rendering:auto;shape-rendering:auto;text-rendering:auto;font-family:sans-serif;-inkscape-font-specification:sans-serif;stroke-miterlimit:4;stroke-dasharray:none"/><path id="path4290" d="M 18.363281 69.712891 C 18.387957 70.540342 18.709001 71.264013 19.222656 71.802734 L 19.212891 71.8125 L 19.357422 71.955078 C 19.360505 71.957909 19.364093 71.960073 19.367188 71.962891 L 26.599609 79.068359 C 26.044831 78.550125 25.698241 77.821152 25.638672 76.988281 L 18.951172 70.298828 L 18.363281 69.712891 z M 26.636719 79.103516 L 26.660156 79.126953 L 26.664062 79.123047 C 26.655656 79.11562 26.645042 79.111033 26.636719 79.103516 z" transform="translate(-268,635.29076)" style="font-style:normal;font-variant:normal;font-weight:400;font-stretch:normal;text-indent:0;text-align:start;text-decoration:none;line-height:normal;letter-spacing:normal;word-spacing:normal;text-transform:none;direction:ltr;block-progression:tb;writing-mode:lr-tb;text-anchor:start;baseline-shift:baseline;opacity:1;color:#000;color-interpolation:sRGB;color-interpolation-filters:sRGB;fill:url(#linearGradient4334);fill-opacity:1;fill-rule:nonzero;stroke:none;stroke-width:1.7;marker:none;visibility:visible;display:inline;overflow:visible;enable-background:accumulate;clip-rule:nonzero;color-rendering:auto;image-rendering:auto;shape-rendering:auto;text-rendering:auto;font-family:sans-serif;-inkscape-font-specification:sans-serif;stroke-miterlimit:4;stroke-dasharray:none"/><path id="path4932" d="m -249.64844,680.44506 7.25782,7.13281 -0.004,-13.22548 -7.25554,-6.43371 z" style="color:#000;fill:#871f1c;fill-opacity:1;fill-rule:nonzero;stroke:none;stroke-width:1.70000005;marker:none;visibility:visible;display:inline;overflow:visible;enable-background:accumulate"/><path id="path4193" d="M 74.580078 23.386719 L 32.878906 27.015625 L 28.980469 27.365234 C 27.115139 27.585324 25.609399 29.228646 25.605469 31.103516 L 25.605469 31.304688 C 25.609399 29.429818 27.115139 27.786496 28.980469 27.566406 L 32.878906 27.216797 L 74.580078 23.587891 C 76.423328 23.438961 77.910071 24.742212 78.019531 26.544922 L 78.019531 26.34375 C 77.910071 24.54104 76.423328 23.237789 74.580078 23.386719 z M 52.816406 41.691406 C 52.486016 41.687406 52.15173 41.700369 51.8125 41.730469 C 46.38476 42.217389 41.984375 47.019974 41.984375 52.458984 L 41.984375 52.660156 C 41.984375 47.221146 46.38476 42.418561 51.8125 41.931641 C 52.15173 41.901541 52.486016 41.888578 52.816406 41.892578 C 57.772156 41.952348 61.640625 45.799347 61.640625 50.898438 L 61.640625 50.697266 C 61.640625 45.598176 57.772156 41.751176 52.816406 41.691406 z M 78.019531 50.869141 L 61.640625 52.337891 L 61.640625 52.539062 L 78.019531 51.070312 L 78.019531 50.869141 z M 41.984375 54.101562 L 25.609375 55.570312 L 25.609375 55.771484 L 41.984375 54.302734 L 41.984375 54.101562 z" transform="translate(-268,635.29076)" style="fill:#fff;fill-opacity:1;fill-rule:nonzero;stroke:none;opacity:.3"/></g></g><g id="layer2" style="display:none"><g style="display:inline" id="g4394" clip-path="none" transform="translate(-340.00001,-581)"><g id="g855"><g id="g870" clip-path="url(#clipPath873)" style="opacity:.6;filter:url(#filter891)"><path id="path844" d="m 264,552.36218 c 0,6.62742 -5.37258,12 -12,12 -6.62742,0 -12,-5.37258 -12,-12 0,-6.62741 5.37258,-12 12,-12 6.62742,0 12,5.37259 12,12 z" transform="matrix(1.4999992,0,0,1.4999992,-29.999795,-237.54282)" style="color:#000;fill:#000;fill-opacity:1;fill-rule:nonzero;stroke:none;stroke-width:4;marker:none;visibility:visible;display:inline;overflow:visible;enable-background:accumulate"/></g><g id="g862"><path style="color:#000;fill:#f5f5f5;fill-opacity:1;fill-rule:nonzero;stroke:none;stroke-width:4;marker:none;visibility:visible;display:inline;overflow:visible;enable-background:accumulate" id="path4398" d="m 264,552.36218 c 0,6.62742 -5.37258,12 -12,12 -6.62742,0 -12,-5.37258 -12,-12 0,-6.62741 5.37258,-12 12,-12 6.62742,0 12,5.37259 12,12 z" transform="matrix(1.4999992,0,0,1.4999992,-29.999795,-238.54282)"/><path id="path4400" d="m 264,552.36218 c 0,6.62742 -5.37258,12 -12,12 -6.62742,0 -12,-5.37258 -12,-12 0,-6.62741 5.37258,-12 12,-12 6.62742,0 12,5.37259 12,12 z" transform="matrix(1.25,0,0,1.25,33,-100.45273)" style="color:#000;fill:#dd4814;fill-opacity:1;fill-rule:nonzero;stroke:none;stroke-width:4;marker:none;visibility:visible;display:inline;overflow:visible;enable-background:accumulate"/><path style="color:#000;fill:#f5f5f5;fill-opacity:1;fill-rule:nonzero;stroke:none;stroke-width:3;marker:none;visibility:visible;display:inline;overflow:visible;enable-background:accumulate" id="path4459" d="m 669.8173,595.77657 c -0.39132,0.22593 -3.62645,-1.90343 -4.07583,-1.95066 -0.44938,-0.0472 -4.05653,1.36297 -4.39232,1.06062 -0.3358,-0.30235 0.68963,-4.03715 0.59569,-4.47913 -0.0939,-0.44198 -2.5498,-3.43681 -2.36602,-3.8496 0.18379,-0.41279 4.05267,-0.59166 4.44398,-0.81759 0.39132,-0.22593 2.48067,-3.48704 2.93005,-3.4398 0.44938,0.0472 1.81505,3.67147 2.15084,3.97382 0.3358,0.30236 4.08294,1.2817 4.17689,1.72369 0.0939,0.44198 -2.9309,2.86076 -3.11469,3.27355 -0.18379,0.41279 0.0427,4.27917 -0.34859,4.5051 z" transform="matrix(1.511423,-0.16366377,0.16366377,1.511423,-755.37346,-191.93651)"/></g></g></g></g></svg>